<mxfile host="65bd71144e">
    <diagram id="nATCAIIqyFDKElrvJcmv" name="Page-1">
        <mxGraphModel dx="1388" dy="659" grid="1" gridSize="10" guides="1" tooltips="1" connect="1" arrows="1" fold="1" page="1" pageScale="1" pageWidth="827" pageHeight="1169" math="0" shadow="0">
            <root>
                <mxCell id="0"/>
                <mxCell id="1" parent="0"/>
                <mxCell id="7" value="prov:used" style="edgeStyle=none;html=1;exitX=1;exitY=0.5;exitDx=0;exitDy=0;entryX=0;entryY=0.5;entryDx=0;entryDy=0;" edge="1" parent="1" source="2" target="6">
                    <mxGeometry relative="1" as="geometry">
                        <mxPoint as="offset"/>
                    </mxGeometry>
                </mxCell>
                <mxCell id="8" value="prov:informed" style="edgeStyle=none;html=1;exitX=0.5;exitY=1;exitDx=0;exitDy=0;entryX=0.5;entryY=0;entryDx=0;entryDy=0;" edge="1" parent="1" source="2" target="3">
                    <mxGeometry relative="1" as="geometry"/>
                </mxCell>
                <mxCell id="2" value="&lt;b&gt;prov:&lt;/b&gt;Activity" style="rounded=1;whiteSpace=wrap;html=1;labelBackgroundColor=none;fontColor=none;fillColor=#cfceff;fontSize=12;" vertex="1" parent="1">
                    <mxGeometry x="210" y="200" width="140" height="40" as="geometry"/>
                </mxCell>
                <mxCell id="9" value="prov:informed" style="edgeStyle=none;html=1;exitX=0.5;exitY=1;exitDx=0;exitDy=0;entryX=0.5;entryY=0;entryDx=0;entryDy=0;" edge="1" parent="1" source="3" target="4">
                    <mxGeometry relative="1" as="geometry"/>
                </mxCell>
                <mxCell id="12" value="prov:used" style="edgeStyle=orthogonalEdgeStyle;html=1;exitX=1;exitY=0.5;exitDx=0;exitDy=0;entryX=0.25;entryY=1;entryDx=0;entryDy=0;rounded=0;" edge="1" parent="1" source="3" target="6">
                    <mxGeometry x="-0.4043" relative="1" as="geometry">
                        <mxPoint as="offset"/>
                    </mxGeometry>
                </mxCell>
                <mxCell id="3" value="&lt;b&gt;prov:&lt;/b&gt;Activity" style="rounded=1;whiteSpace=wrap;html=1;labelBackgroundColor=none;fontColor=none;fillColor=#cfceff;fontSize=12;" vertex="1" parent="1">
                    <mxGeometry x="210" y="280" width="140" height="40" as="geometry"/>
                </mxCell>
                <mxCell id="10" value="prov:informed" style="edgeStyle=none;html=1;exitX=0.5;exitY=1;exitDx=0;exitDy=0;entryX=0.5;entryY=0;entryDx=0;entryDy=0;" edge="1" parent="1" source="4" target="5">
                    <mxGeometry relative="1" as="geometry"/>
                </mxCell>
                <mxCell id="4" value="&lt;b&gt;prov:&lt;/b&gt;Activity" style="rounded=1;whiteSpace=wrap;html=1;labelBackgroundColor=none;fontColor=none;fillColor=#cfceff;fontSize=12;" vertex="1" parent="1">
                    <mxGeometry x="210" y="360" width="140" height="40" as="geometry"/>
                </mxCell>
                <mxCell id="5" value="&lt;b&gt;prov:&lt;/b&gt;Activity" style="rounded=1;whiteSpace=wrap;html=1;labelBackgroundColor=none;fontColor=none;fillColor=#cfceff;fontSize=12;" vertex="1" parent="1">
                    <mxGeometry x="210" y="440" width="140" height="40" as="geometry"/>
                </mxCell>
                <mxCell id="15" value="prov:wasGeneratedBy" style="edgeStyle=orthogonalEdgeStyle;rounded=0;html=1;exitX=0.5;exitY=0;exitDx=0;exitDy=0;entryX=0.5;entryY=0;entryDx=0;entryDy=0;" edge="1" parent="1" source="6" target="2">
                    <mxGeometry relative="1" as="geometry">
                        <Array as="points">
                            <mxPoint x="560" y="160"/>
                            <mxPoint x="280" y="160"/>
                        </Array>
                    </mxGeometry>
                </mxCell>
                <mxCell id="6" value="&lt;b&gt;prov:&lt;/b&gt;Entity" style="rounded=1;whiteSpace=wrap;html=1;labelBackgroundColor=none;fontColor=none;fillColor=#fffedf;fontSize=12;" vertex="1" parent="1">
                    <mxGeometry x="490" y="200" width="140" height="40" as="geometry"/>
                </mxCell>
                <mxCell id="13" value="prov:used" style="edgeStyle=orthogonalEdgeStyle;html=1;exitX=1;exitY=0.5;exitDx=0;exitDy=0;entryX=0.5;entryY=1;entryDx=0;entryDy=0;rounded=0;" edge="1" parent="1" source="4" target="6">
                    <mxGeometry x="-0.6" relative="1" as="geometry">
                        <mxPoint x="455" y="400" as="sourcePoint"/>
                        <mxPoint x="665" y="340" as="targetPoint"/>
                        <mxPoint as="offset"/>
                    </mxGeometry>
                </mxCell>
                <mxCell id="14" value="prov:used" style="edgeStyle=orthogonalEdgeStyle;html=1;exitX=1;exitY=0.5;exitDx=0;exitDy=0;rounded=0;entryX=0.75;entryY=1;entryDx=0;entryDy=0;" edge="1" parent="1" source="5" target="6">
                    <mxGeometry x="-0.6989" relative="1" as="geometry">
                        <mxPoint x="370" y="320" as="sourcePoint"/>
                        <mxPoint x="560" y="240" as="targetPoint"/>
                        <mxPoint as="offset"/>
                    </mxGeometry>
                </mxCell>
            </root>
        </mxGraphModel>
    </diagram>
</mxfile>